<svg xmlns="http://www.w3.org/2000/svg" xmlns:xlink="http://www.w3.org/1999/xlink" version="1.1" x="0px" y="0px" viewBox="-16.631 3.375 49.25 42.96875" enable-background="new -16.631 12.375 49.25 34.375" xml:space="preserve"><path d="M14.974,34.398c-1.179,0-2.312-0.48-3.149-1.304c-0.153,0.151-0.303,0.309-0.434,0.489  c-1.272,1.763-0.874,4.224,0.891,5.496c1.764,1.272,4.224,0.874,5.497-0.891c0.126-0.175,0.222-0.36,0.315-0.546  c-0.679-0.973-1.387-2.064-2.199-3.344C15.59,34.365,15.282,34.398,14.974,34.398z"/><path d="M28.563,40.959c-4.558-3.159-5.546-4.728-9.704-11.329l-0.539-0.855c-0.018-0.028-0.042-0.051-0.061-0.077  c-0.158-0.434-0.402-0.843-0.739-1.199c-4.581-4.861-9.522-9.298-9.961-9.614c-0.618-0.444-1.333-0.658-2.04-0.658  c-1.089,0-2.161,0.506-2.845,1.457c-0.01,0.014-0.016,0.029-0.024,0.043c-0.172,0.156-0.331,0.33-0.458,0.538  c-2.21,3.627-3.602,6.223-4.721,8.308c-2.702,5.038-3.517,6.559-10.743,12.36c-1.077,0.864-1.249,2.438-0.383,3.515  c0.494,0.614,1.218,0.935,1.951,0.935c0.549,0,1.102-0.181,1.563-0.551c8.02-6.44,9.109-8.471,12.019-13.896  c0.764-1.426,1.667-3.105,2.873-5.188c1.764,1.622,4.768,4.469,7.674,7.553c0.063,0.068,0.139,0.116,0.206,0.178  c0.663,0.603,1.497,0.922,2.342,0.922c0.462,0,0.922-0.099,1.355-0.281c0.799,1.265,1.491,2.34,2.139,3.298  c2.297,3.391,4.023,5.203,7.816,7.832c0.347,0.24,0.744,0.355,1.137,0.355c0.634,0,1.257-0.3,1.646-0.86  C29.697,42.834,29.471,41.588,28.563,40.959z"/></svg>