<svg xmlns="http://www.w3.org/2000/svg" xmlns:xlink="http://www.w3.org/1999/xlink" version="1.1" x="0px" y="0px" viewBox="-3.75 7.375 40.619 40.619" enable-background="new 0 12.375 32.619 34.375" xml:space="preserve"><circle cx="15.838" cy="20.886" r="3.938"/><path d="M30.36,36.699c-0.192-0.807-1.005-1.303-1.809-1.108c-1.854,0.443-3.755,0.096-5.358-0.983  c-1.271-0.855-2.979-2.982-3.729-6.67l-0.062-0.25c-0.172-1.375-1.567-2.469-3.5-2.469s-3.328,1.078-3.5,2.469  c-0.015,0.124-0.062,0.219-0.094,0.688c-1.413,6.773-3.941,6.91-9.212,7.176c-0.827,0.042-1.464,0.746-1.422,1.574  c0.041,0.801,0.703,1.424,1.497,1.424c0.026,0,0.051,0,0.077-0.002c0.807-0.04,1.583-0.095,2.331-0.175  c-1.453,0.65-1.503,1.438-1.538,1.989c-0.144,2.279,1.788,3.021,10.88,4.171c0.085,0.011,0.17,0.016,0.253,0.016  c0.308,0,0.599-0.077,0.863-0.205c0.265,0.128,0.556,0.205,0.864,0.205c0.083,0,0.168-0.005,0.253-0.016  c9.092-1.15,11.024-1.892,10.88-4.171c-0.028-0.442-0.067-1.039-0.836-1.595c0.684-0.017,1.371-0.095,2.054-0.259  C30.057,38.314,30.554,37.504,30.36,36.699z M12.616,37.265c-1.237,0.048-2.291,0.127-3.194,0.23  c1.226-0.498,2.309-1.25,3.236-2.376C12.652,35.771,12.638,36.485,12.616,37.265z M19.618,37.272c0.017-0.631,0.03-1.233,0.038-1.79  c0.566,0.613,1.186,1.157,1.861,1.612c0.195,0.131,0.402,0.229,0.603,0.345C21.382,37.368,20.554,37.311,19.618,37.272z"/></svg>