<svg xmlns="http://www.w3.org/2000/svg" xmlns:xlink="http://www.w3.org/1999/xlink" version="1.1" x="0px" y="0px" viewBox="0 0 200 200" enable-background="new 0 0 200 200" xml:space="preserve"><g display="none"><path display="inline" d="M188.868,32.22c-1.994-1.464-4.784-1.108-6.346,0.81l-35.384,43.418L112.62,58.334   c-1.71-0.898-12.698-8.758-14.286-10.03L62.1,19.258c-3.246-2.602-7.84-2.444-10.876,0.234   C49.442,21.066,11.666,71.58,11.666,71.58c-1.46,1.986-1.114,4.766,0.79,6.334c1.908,1.572,4.714,1.372,6.38-0.454l37.118-40.69   l24.482,22.828l0.206,5.882c0.25,7.126,4.53,13.488,11.036,16.404c7.24,3.246,11.046,11.272,8.978,18.93l-5.398,19.992   c-0.566,2.096-0.108,8.106,0.07,9.21l0.808,5.008c-0.998-0.206-2.03-0.316-3.088-0.316c-8.394,0-15.198,6.804-15.198,15.198   s6.804,15.198,15.198,15.198c2.778,0,5.372-0.758,7.614-2.058l1.188,7.358l-43.636,2.384c-2.38,0.132-4.296,1.982-4.478,4.36   c-0.21,2.744,1.944,5.08,4.694,5.108c0,0,51,0.434,51.388,0.338c2.86-0.524,4.964-3.132,4.722-6.142l-3.464-42.826   c3.882-1.628,8.91-4.036,10.366-6.114c3.82-5.456,4.812-19.846,3.6-26.396c-0.744-4.018-3.024-10.698-5.618-17.56L146.14,95.12   c4.192,1.814,9.066-0.004,11.048-4.118l0,0c0.54-1.122,32.82-52.504,32.82-52.504C191.356,36.434,190.856,33.678,188.868,32.22z"/></g><path d="M188.868,32.22c-1.994-1.464-4.784-1.108-6.346,0.81l-35.384,43.418l-34.52-18.114c-1.71-0.898-12.698-8.758-14.286-10.03  L62.1,19.258c-3.246-2.602-7.84-2.446-10.876,0.234C49.442,21.066,11.666,71.58,11.666,71.58c-1.46,1.986-1.114,4.766,0.79,6.334  c1.908,1.572,4.714,1.372,6.382-0.454l37.118-40.69l24.482,22.828l0.206,5.882c0.25,7.126,4.53,13.488,11.036,16.404  c7.24,3.246,11.046,11.272,8.978,18.93l-5.398,19.992c-0.566,2.096-0.108,8.106,0.07,9.21l6.522,40.386l-43.636,2.384  c-2.38,0.132-4.296,1.982-4.478,4.36c-0.21,2.744,1.944,5.08,4.694,5.108c0,0,51,0.434,51.388,0.338  c2.86-0.524,4.964-3.132,4.722-6.142l-3.464-42.826c3.882-1.628,8.91-4.036,10.366-6.114c3.82-5.456,4.812-19.846,3.6-26.396  c-0.744-4.018-3.024-10.698-5.618-17.56l26.716,11.564c4.192,1.814,9.066-0.004,11.048-4.118l0,0  c0.54-1.122,32.82-52.504,32.82-52.504C191.356,36.434,190.856,33.678,188.868,32.22z"/><path d="M93.048,134.71c-8.394,0-15.198,6.804-15.198,15.198s6.804,15.198,15.198,15.198c2.032,0,3.966-0.406,5.738-1.13  l-4.718-29.214C93.73,134.738,93.392,134.71,93.048,134.71z"/></svg>